<global>
amp_veltrack=0
ampeg_attack=0.01
ampeg_release=20.0

<group>
group_label=RR1
seq_length=4
seq_position=1

<region>
hivel=127
key=D3
lovel=96
sample=TamTam_Hard_Hit_FF_D4_RR1.opus

<region>
hivel=95
key=D3
lovel=64
sample=TamTam_Hard_Hit_MF_D4_RR1.opus

<region>
hivel=63
key=D3
lovel=32
sample=TamTam_Hard_Hit_MP_D4_RR1.opus

<region>
hivel=31
key=D3
lovel=0
sample=TamTam_Hard_Hit_PP_D4_RR1.opus

<group>
group_label=RR2
seq_length=4
seq_position=2

<region>
hivel=127
key=D3
lovel=96
sample=TamTam_Hard_Hit_FF_D4_RR2.opus

<region>
hivel=95
key=D3
lovel=64
sample=TamTam_Hard_Hit_MF_D4_RR2.opus

<region>
hivel=63
key=D3
lovel=32
sample=TamTam_Hard_Hit_MP_D4_RR2.opus

<region>
hivel=31
key=D3
lovel=0
sample=TamTam_Hard_Hit_PP_D4_RR2.opus

<group>
group_label=RR3
seq_length=4
seq_position=3

<region>
hivel=127
key=D3
lovel=96
sample=TamTam_Hard_Hit_FF_D4_RR3.opus

<region>
hivel=95
key=D3
lovel=64
sample=TamTam_Hard_Hit_MF_D4_RR3.opus

<region>
hivel=63
key=D3
lovel=32
sample=TamTam_Hard_Hit_MP_D4_RR3.opus

<region>
hivel=31
key=D3
lovel=0
sample=TamTam_Hard_Hit_PP_D4_RR3.opus

<group>
group_label=RR4
seq_length=4
seq_position=4

<region>
hivel=127
key=D3
lovel=96
sample=TamTam_Hard_Hit_FF_D4_RR4.opus

<region>
hivel=95
key=D3
lovel=64
sample=TamTam_Hard_Hit_MF_D4_RR4.opus

<region>
hivel=63
key=D3
lovel=32
sample=TamTam_Hard_Hit_MP_D4_RR4.opus

<region>
hivel=31
key=D3
lovel=0
sample=TamTam_Hard_Hit_PP_D4_RR4.opus

